ISO-10303-21;
HEADER;
FILE_DESCRIPTION(('ViewDefinition [CoordinationView_V2.0]'),'2;1');
FILE_NAME('bim_model.ifc','2026-06-15T17:02:56',('MechElecAI'),('MechElecAI'),'MechElecAI BIM Exporter 1.0','MechElecAI','');
FILE_SCHEMA(('IFC4'));
ENDSEC;
DATA;
#102=IFCOWNERHISTORY(#104,#103,$,.NOCHANGE.,$,$,$);
#103=IFCAPPLICATION(#105,'1.0','MechElecAI','MechElecAI BIM');
#104=IFCPERSON($,$,$,$,$,$,$,$);
#105=IFCORGANIZATION('MechElecAI','MechElecAI BIM System',$);
#106=IFCPROJECTCONTEXT('ModelContext',.MODEL.,$,$,$);
#107=IFCGEOMETRICREPRESENTATIONCONTEXT($,'Model',3,1.E-05,#108,$);
#108=IFCAXIS2PLACEMENT3D(#109,#110,#111);
#109=IFCCARTESIANPOINT((0.,0.,0.));
#110=IFCDIRECTION((0.,0.,1.));
#111=IFCDIRECTION((1.,0.,0.));
#112=IFCSIUNIT(*,.LENGTHUNIT.,$,.METRE.);
#113=IFCSIUNIT(*,.AREAUNIT.,$,.SQUARE_METRE.);
#114=IFCSIUNIT(*,.VOLUMEUNIT.,$,.CUBIC_METRE.);
#115=IFCUNITASSIGNMENT((#112,#113,#114));
#101=IFCPROJECT('F933947B1C3E4F76A5A4F8',#102,'四合一 DEMO 项目','Generated by MechElecAI',$,#106,#115,$);
#116=IFCSITE('4BD75999555B426A8E14D6',#102,'项目地点',$,$,#117,$,$,.ELEMENT.,$,$,$,$,$);
#117=IFCLOCALPLACEMENT($,#118);
#118=IFCAXIS2PLACEMENT3D(#109,#110,#111);
#119=IFCBUILDING('B59B6F8449A2414FA71128',#102,'Building',$,$,#120,$,$,$,$,$);
#120=IFCLOCALPLACEMENT($,#108);
#121=IFCBUILDINGSTOREY('B147CD81B3D64D12A6D97D',#102,'Level_1',$,$,#122,$,$,3.0);
#122=IFCLOCALPLACEMENT($,#123);
#123=IFCAXIS2PLACEMENT3D(#124,#110,#111);
#124=IFCCARTESIANPOINT((0.,0.,0.));
#125=IFCRELAGGREGATES('475F84090A3145CF817F25',#102,'ProjectContaining',$,#101,(#116));
#126=IFCRELAGGREGATES('0C2379602ECC4CD595884F',#102,'SiteContaining',$,#116,(#119));
#127=IFCRELAGGREGATES('85A51CD81F8F46B883304E',#102,'BuildingContaining',$,#119,(#121));
#131=IFCCARTESIANPOINT((0.0000,0.0000,0.0000));
#138=IFCDIRECTION((0.,0.,1.));
#139=IFCDIRECTION((1.,0.,0.));
#134=IFCAXIS2PLACEMENT3D(#135,#138,#139);
#135=IFCCARTESIANPOINT((0.,0.,0.));
#140=IFCBLOCK(#134,0.8000,0.6000,2.0000);
#142=IFCCARTESIANPOINT((0.,0.,0.));
#144=IFCDIRECTION((0.,0.,1.));
#145=IFCDIRECTION((1.,0.,0.));
#143=IFCAXIS2PLACEMENT3D(#142,#144,#145);
#141=IFCGEOMETRICREPRESENTATIONSUBCONTEXT('Body','Model',*,*,*,*,#143,$,.MODEL_VIEW.,$);
#133=IFCSHAPEREPRESENTATION(#141,'Body','CSG',(#140));
#132=IFCPRODUCTDEFINITIONSHAPE($,$,(#133));
#129=IFCLOCALPLACEMENT($,#130);
#146=IFCDIRECTION((0.,0.,1.));
#147=IFCDIRECTION((1.,0.,0.));
#130=IFCAXIS2PLACEMENT3D(#131,#146,#147);
#128=IFCDISTRIBUTIONBOARD('49596C4EE0E744F687B478',#102,'配电柜 低压配电柜 GGD','','cabinet',#129,#132,$);
#150=IFCPROPERTYSINGLEVALUE('quantity',$,IFCREAL(3.0000),$);
#151=IFCPROPERTYSINGLEVALUE('unit_price',$,IFCREAL(15000.0000),$);
#152=IFCPROPERTYSINGLEVALUE('total_price',$,IFCREAL(45000.0000),$);
#148=IFCPROPERTYSET('6087B7A290A242F595CFE4',#102,'QuantityInfo',$,(#150,#151,#152));
#149=IFCRELDEFINESBYPROPERTIES('707BF83395C34AE388C792',#102,'QuantityInfo',$,(#128),#148);
#156=IFCCARTESIANPOINT((1.8000,0.0000,0.0000));
#163=IFCDIRECTION((0.,0.,1.));
#164=IFCDIRECTION((1.,0.,0.));
#159=IFCAXIS2PLACEMENT3D(#160,#163,#164);
#160=IFCCARTESIANPOINT((0.,0.,0.));
#165=IFCBLOCK(#159,0.4000,0.2500,0.5000);
#167=IFCCARTESIANPOINT((0.,0.,0.));
#169=IFCDIRECTION((0.,0.,1.));
#170=IFCDIRECTION((1.,0.,0.));
#168=IFCAXIS2PLACEMENT3D(#167,#169,#170);
#166=IFCGEOMETRICREPRESENTATIONSUBCONTEXT('Body','Model',*,*,*,*,#168,$,.MODEL_VIEW.,$);
#158=IFCSHAPEREPRESENTATION(#166,'Body','CSG',(#165));
#157=IFCPRODUCTDEFINITIONSHAPE($,$,(#158));
#154=IFCLOCALPLACEMENT($,#155);
#171=IFCDIRECTION((0.,0.,1.));
#172=IFCDIRECTION((1.,0.,0.));
#155=IFCAXIS2PLACEMENT3D(#156,#171,#172);
#153=IFCDISTRIBUTIONBOARD('C04E4628B98E4440ACA80C',#102,'配电箱 AL-1F','','distribution_box',#154,#157,$);
#175=IFCPROPERTYSINGLEVALUE('quantity',$,IFCREAL(5.0000),$);
#176=IFCPROPERTYSINGLEVALUE('unit_price',$,IFCREAL(5000.0000),$);
#177=IFCPROPERTYSINGLEVALUE('total_price',$,IFCREAL(25000.0000),$);
#173=IFCPROPERTYSET('6471AF9FAD764A2083BB58',#102,'QuantityInfo',$,(#175,#176,#177));
#174=IFCRELDEFINESBYPROPERTIES('3D97144AD038405397A248',#102,'QuantityInfo',$,(#153),#173);
#181=IFCCARTESIANPOINT((3.2000,0.0000,0.0000));
#188=IFCDIRECTION((0.,0.,1.));
#189=IFCDIRECTION((1.,0.,0.));
#184=IFCAXIS2PLACEMENT3D(#185,#188,#189);
#185=IFCCARTESIANPOINT((0.,0.,0.));
#190=IFCBLOCK(#184,1.0000,1.0000,1.0000);
#192=IFCCARTESIANPOINT((0.,0.,0.));
#194=IFCDIRECTION((0.,0.,1.));
#195=IFCDIRECTION((1.,0.,0.));
#193=IFCAXIS2PLACEMENT3D(#192,#194,#195);
#191=IFCGEOMETRICREPRESENTATIONSUBCONTEXT('Body','Model',*,*,*,*,#193,$,.MODEL_VIEW.,$);
#183=IFCSHAPEREPRESENTATION(#191,'Body','CSG',(#190));
#182=IFCPRODUCTDEFINITIONSHAPE($,$,(#183));
#179=IFCLOCALPLACEMENT($,#180);
#196=IFCDIRECTION((0.,0.,1.));
#197=IFCDIRECTION((1.,0.,0.));
#180=IFCAXIS2PLACEMENT3D(#181,#196,#197);
#178=IFCELECTRICALELEMENT('3674E2F7467147F19BA2EF',#102,'变压器 SCB14-800kVA','','equipment',#179,#182,$);
#200=IFCPROPERTYSINGLEVALUE('quantity',$,IFCREAL(1.0000),$);
#201=IFCPROPERTYSINGLEVALUE('unit_price',$,IFCREAL(120000.0000),$);
#202=IFCPROPERTYSINGLEVALUE('total_price',$,IFCREAL(120000.0000),$);
#198=IFCPROPERTYSET('0849038A841742E187103C',#102,'QuantityInfo',$,(#200,#201,#202));
#199=IFCRELDEFINESBYPROPERTIES('9CA39487896D4C52A17C02',#102,'QuantityInfo',$,(#178),#198);
#206=IFCCARTESIANPOINT((5.2000,0.0000,0.0000));
#213=IFCDIRECTION((0.,0.,1.));
#214=IFCDIRECTION((1.,0.,0.));
#209=IFCAXIS2PLACEMENT3D(#210,#213,#214);
#210=IFCCARTESIANPOINT((0.,0.,0.));
#215=IFCBLOCK(#209,1.0000,1.0000,1.0000);
#217=IFCCARTESIANPOINT((0.,0.,0.));
#219=IFCDIRECTION((0.,0.,1.));
#220=IFCDIRECTION((1.,0.,0.));
#218=IFCAXIS2PLACEMENT3D(#217,#219,#220);
#216=IFCGEOMETRICREPRESENTATIONSUBCONTEXT('Body','Model',*,*,*,*,#218,$,.MODEL_VIEW.,$);
#208=IFCSHAPEREPRESENTATION(#216,'Body','CSG',(#215));
#207=IFCPRODUCTDEFINITIONSHAPE($,$,(#208));
#204=IFCLOCALPLACEMENT($,#205);
#221=IFCDIRECTION((0.,0.,1.));
#222=IFCDIRECTION((1.,0.,0.));
#205=IFCAXIS2PLACEMENT3D(#206,#221,#222);
#203=IFCELECTRICALELEMENT('3CEA7246A3654484914ADC',#102,'电动机控制中心 MCC','','equipment',#204,#207,$);
#225=IFCPROPERTYSINGLEVALUE('quantity',$,IFCREAL(2.0000),$);
#226=IFCPROPERTYSINGLEVALUE('unit_price',$,IFCREAL(80000.0000),$);
#227=IFCPROPERTYSINGLEVALUE('total_price',$,IFCREAL(160000.0000),$);
#223=IFCPROPERTYSET('E8B21AF50B9C479394B6C1',#102,'QuantityInfo',$,(#225,#226,#227));
#224=IFCRELDEFINESBYPROPERTIES('801AC90B0F1142B28631C4',#102,'QuantityInfo',$,(#203),#223);
#231=IFCCARTESIANPOINT((7.2000,0.0000,0.0000));
#238=IFCDIRECTION((0.,0.,1.));
#239=IFCDIRECTION((1.,0.,0.));
#234=IFCAXIS2PLACEMENT3D(#235,#238,#239);
#235=IFCCARTESIANPOINT((0.,0.,0.));
#240=IFCBLOCK(#234,0.1000,0.0500,0.1000);
#242=IFCCARTESIANPOINT((0.,0.,0.));
#244=IFCDIRECTION((0.,0.,1.));
#245=IFCDIRECTION((1.,0.,0.));
#243=IFCAXIS2PLACEMENT3D(#242,#244,#245);
#241=IFCGEOMETRICREPRESENTATIONSUBCONTEXT('Body','Model',*,*,*,*,#243,$,.MODEL_VIEW.,$);
#233=IFCSHAPEREPRESENTATION(#241,'Body','CSG',(#240));
#232=IFCPRODUCTDEFINITIONSHAPE($,$,(#233));
#229=IFCLOCALPLACEMENT($,#230);
#246=IFCDIRECTION((0.,0.,1.));
#247=IFCDIRECTION((1.,0.,0.));
#230=IFCAXIS2PLACEMENT3D(#231,#246,#247);
#228=IFCELECTRICALELEMENT('B2090F513A33437E8188EB',#102,'开关 2P 16A','','equipment',#229,#232,$);
#250=IFCPROPERTYSINGLEVALUE('quantity',$,IFCREAL(40.0000),$);
#251=IFCPROPERTYSINGLEVALUE('unit_price',$,IFCREAL(80.0000),$);
#252=IFCPROPERTYSINGLEVALUE('total_price',$,IFCREAL(3200.0000),$);
#248=IFCPROPERTYSET('B7B3F9F273C64C5C98B5AB',#102,'QuantityInfo',$,(#250,#251,#252));
#249=IFCRELDEFINESBYPROPERTIES('C576F61A235F4EB6832BCD',#102,'QuantityInfo',$,(#228),#248);
#256=IFCCARTESIANPOINT((0.0000,2.0000,1.5000));
#263=IFCDIRECTION((0.,0.,1.));
#264=IFCDIRECTION((1.,0.,0.));
#259=IFCAXIS2PLACEMENT3D(#260,#263,#264);
#260=IFCCARTESIANPOINT((0.,0.,0.));
#265=IFCCYLINDER(#259,520.0000,0.0250);
#267=IFCCARTESIANPOINT((0.,0.,0.));
#269=IFCDIRECTION((0.,0.,1.));
#270=IFCDIRECTION((1.,0.,0.));
#268=IFCAXIS2PLACEMENT3D(#267,#269,#270);
#266=IFCGEOMETRICREPRESENTATIONSUBCONTEXT('Body','Model',*,*,*,*,#268,$,.MODEL_VIEW.,$);
#258=IFCSHAPEREPRESENTATION(#266,'Body','SweptSolid',(#265));
#257=IFCPRODUCTDEFINITIONSHAPE($,$,(#258));
#254=IFCLOCALPLACEMENT($,#255);
#271=IFCDIRECTION((0.,0.,1.));
#272=IFCDIRECTION((1.,0.,0.));
#255=IFCAXIS2PLACEMENT3D(#256,#271,#272);
#253=IFCCABLECARRIERSEGMENT('8ECB3405FEBD45B080F93A',#102,'电力电缆 YJV-4x95','','cable',#254,#257,$);
#275=IFCPROPERTYSINGLEVALUE('quantity',$,IFCREAL(520.0000),$);
#276=IFCPROPERTYSINGLEVALUE('unit_price',$,IFCREAL(280.0000),$);
#277=IFCPROPERTYSINGLEVALUE('total_price',$,IFCREAL(145600.0000),$);
#278=IFCPROPERTYSINGLEVALUE('length',$,IFCREAL(520.0000),$);
#273=IFCPROPERTYSET('A308DB6BD11242188B1243',#102,'QuantityInfo',$,(#275,#276,#277,#278));
#274=IFCRELDEFINESBYPROPERTIES('8F2A16C15332497E8FA9DC',#102,'QuantityInfo',$,(#253),#273);
#282=IFCCARTESIANPOINT((2.0000,2.0000,1.5000));
#289=IFCDIRECTION((0.,0.,1.));
#290=IFCDIRECTION((1.,0.,0.));
#285=IFCAXIS2PLACEMENT3D(#286,#289,#290);
#286=IFCCARTESIANPOINT((0.,0.,0.));
#291=IFCCYLINDER(#285,820.0000,0.0250);
#293=IFCCARTESIANPOINT((0.,0.,0.));
#295=IFCDIRECTION((0.,0.,1.));
#296=IFCDIRECTION((1.,0.,0.));
#294=IFCAXIS2PLACEMENT3D(#293,#295,#296);
#292=IFCGEOMETRICREPRESENTATIONSUBCONTEXT('Body','Model',*,*,*,*,#294,$,.MODEL_VIEW.,$);
#284=IFCSHAPEREPRESENTATION(#292,'Body','SweptSolid',(#291));
#283=IFCPRODUCTDEFINITIONSHAPE($,$,(#284));
#280=IFCLOCALPLACEMENT($,#281);
#297=IFCDIRECTION((0.,0.,1.));
#298=IFCDIRECTION((1.,0.,0.));
#281=IFCAXIS2PLACEMENT3D(#282,#297,#298);
#279=IFCCABLECARRIERSEGMENT('B9B7669FB45B4A0587D669',#102,'控制电缆 KVV-4x2.5','','cable',#280,#283,$);
#301=IFCPROPERTYSINGLEVALUE('quantity',$,IFCREAL(820.0000),$);
#302=IFCPROPERTYSINGLEVALUE('unit_price',$,IFCREAL(22.0000),$);
#303=IFCPROPERTYSINGLEVALUE('total_price',$,IFCREAL(18040.0000),$);
#304=IFCPROPERTYSINGLEVALUE('length',$,IFCREAL(820.0000),$);
#299=IFCPROPERTYSET('D2E87D1C3BF940ED802AA1',#102,'QuantityInfo',$,(#301,#302,#303,#304));
#300=IFCRELDEFINESBYPROPERTIES('E6B771283BB349F88490C1',#102,'QuantityInfo',$,(#279),#299);
#308=IFCCARTESIANPOINT((4.0000,2.0000,1.5000));
#315=IFCDIRECTION((0.,0.,1.));
#316=IFCDIRECTION((1.,0.,0.));
#311=IFCAXIS2PLACEMENT3D(#312,#315,#316);
#312=IFCCARTESIANPOINT((0.,0.,0.));
#317=IFCCYLINDER(#311,160.0000,0.0250);
#319=IFCCARTESIANPOINT((0.,0.,0.));
#321=IFCDIRECTION((0.,0.,1.));
#322=IFCDIRECTION((1.,0.,0.));
#320=IFCAXIS2PLACEMENT3D(#319,#321,#322);
#318=IFCGEOMETRICREPRESENTATIONSUBCONTEXT('Body','Model',*,*,*,*,#320,$,.MODEL_VIEW.,$);
#310=IFCSHAPEREPRESENTATION(#318,'Body','SweptSolid',(#317));
#309=IFCPRODUCTDEFINITIONSHAPE($,$,(#310));
#306=IFCLOCALPLACEMENT($,#307);
#323=IFCDIRECTION((0.,0.,1.));
#324=IFCDIRECTION((1.,0.,0.));
#307=IFCAXIS2PLACEMENT3D(#308,#323,#324);
#305=IFCCABLECARRIERSEGMENT('BF0376D690764AFF8F6134',#102,'矿物绝缘电缆 BTTZ-1x25','','cable',#306,#309,$);
#327=IFCPROPERTYSINGLEVALUE('quantity',$,IFCREAL(160.0000),$);
#328=IFCPROPERTYSINGLEVALUE('unit_price',$,IFCREAL(180.0000),$);
#329=IFCPROPERTYSINGLEVALUE('total_price',$,IFCREAL(28800.0000),$);
#330=IFCPROPERTYSINGLEVALUE('length',$,IFCREAL(160.0000),$);
#325=IFCPROPERTYSET('CE91046C59F546C7AEE4D6',#102,'QuantityInfo',$,(#327,#328,#329,#330));
#326=IFCRELDEFINESBYPROPERTIES('FB058EB944744D858C64F6',#102,'QuantityInfo',$,(#305),#325);
#334=IFCCARTESIANPOINT((0.0000,3.5000,0.0000));
#341=IFCDIRECTION((0.,0.,1.));
#342=IFCDIRECTION((1.,0.,0.));
#337=IFCAXIS2PLACEMENT3D(#338,#341,#342);
#338=IFCCARTESIANPOINT((0.,0.,0.));
#343=IFCBLOCK(#337,10.0000,0.3000,0.1000);
#345=IFCCARTESIANPOINT((0.,0.,0.));
#347=IFCDIRECTION((0.,0.,1.));
#348=IFCDIRECTION((1.,0.,0.));
#346=IFCAXIS2PLACEMENT3D(#345,#347,#348);
#344=IFCGEOMETRICREPRESENTATIONSUBCONTEXT('Body','Model',*,*,*,*,#346,$,.MODEL_VIEW.,$);
#336=IFCSHAPEREPRESENTATION(#344,'Body','CSG',(#343));
#335=IFCPRODUCTDEFINITIONSHAPE($,$,(#336));
#332=IFCLOCALPLACEMENT($,#333);
#349=IFCDIRECTION((0.,0.,1.));
#350=IFCDIRECTION((1.,0.,0.));
#333=IFCAXIS2PLACEMENT3D(#334,#349,#350);
#331=IFCCABLECARRIERSEGMENT('27701B6952634939BB8BB5',#102,'桥架 200x100 镀锌','','cable_tray',#332,#335,$);
#353=IFCPROPERTYSINGLEVALUE('quantity',$,IFCREAL(180.0000),$);
#354=IFCPROPERTYSINGLEVALUE('unit_price',$,IFCREAL(180.0000),$);
#355=IFCPROPERTYSINGLEVALUE('total_price',$,IFCREAL(32400.0000),$);
#351=IFCPROPERTYSET('2FD134A49A484337BCB42F',#102,'QuantityInfo',$,(#353,#354,#355));
#352=IFCRELDEFINESBYPROPERTIES('E0E46DC0D9374005A29498',#102,'QuantityInfo',$,(#331),#351);
#359=IFCCARTESIANPOINT((10.5000,3.5000,0.0000));
#366=IFCDIRECTION((0.,0.,1.));
#367=IFCDIRECTION((1.,0.,0.));
#362=IFCAXIS2PLACEMENT3D(#363,#366,#367);
#363=IFCCARTESIANPOINT((0.,0.,0.));
#368=IFCBLOCK(#362,10.0000,0.3000,0.1000);
#370=IFCCARTESIANPOINT((0.,0.,0.));
#372=IFCDIRECTION((0.,0.,1.));
#373=IFCDIRECTION((1.,0.,0.));
#371=IFCAXIS2PLACEMENT3D(#370,#372,#373);
#369=IFCGEOMETRICREPRESENTATIONSUBCONTEXT('Body','Model',*,*,*,*,#371,$,.MODEL_VIEW.,$);
#361=IFCSHAPEREPRESENTATION(#369,'Body','CSG',(#368));
#360=IFCPRODUCTDEFINITIONSHAPE($,$,(#361));
#357=IFCLOCALPLACEMENT($,#358);
#374=IFCDIRECTION((0.,0.,1.));
#375=IFCDIRECTION((1.,0.,0.));
#358=IFCAXIS2PLACEMENT3D(#359,#374,#375);
#356=IFCCABLECARRIERSEGMENT('338EAFEEF4A74FFA9CAE1A',#102,'桥架 100x100 镀锌','','cable_tray',#357,#360,$);
#378=IFCPROPERTYSINGLEVALUE('quantity',$,IFCREAL(180.0000),$);
#379=IFCPROPERTYSINGLEVALUE('unit_price',$,IFCREAL(180.0000),$);
#380=IFCPROPERTYSINGLEVALUE('total_price',$,IFCREAL(32400.0000),$);
#376=IFCPROPERTYSET('45789F7125E94FAF84D1CC',#102,'QuantityInfo',$,(#378,#379,#380));
#377=IFCRELDEFINESBYPROPERTIES('362F8462118D4800AD928D',#102,'QuantityInfo',$,(#356),#376);
#384=IFCCARTESIANPOINT((0.0000,3.2000,0.0000));
#391=IFCDIRECTION((0.,0.,1.));
#392=IFCDIRECTION((1.,0.,0.));
#387=IFCAXIS2PLACEMENT3D(#388,#391,#392);
#388=IFCCARTESIANPOINT((0.,0.,0.));
#393=IFCCYLINDER(#387,10.0000,0.0250);
#395=IFCCARTESIANPOINT((0.,0.,0.));
#397=IFCDIRECTION((0.,0.,1.));
#398=IFCDIRECTION((1.,0.,0.));
#396=IFCAXIS2PLACEMENT3D(#395,#397,#398);
#394=IFCGEOMETRICREPRESENTATIONSUBCONTEXT('Body','Model',*,*,*,*,#396,$,.MODEL_VIEW.,$);
#386=IFCSHAPEREPRESENTATION(#394,'Body','SweptSolid',(#393));
#385=IFCPRODUCTDEFINITIONSHAPE($,$,(#386));
#382=IFCLOCALPLACEMENT($,#383);
#399=IFCDIRECTION((0.,0.,1.));
#400=IFCDIRECTION((1.,0.,0.));
#383=IFCAXIS2PLACEMENT3D(#384,#399,#400);
#381=IFCPIPESEGMENT('4BB759565315479AB1E80A',#102,'配管 SC40 镀锌钢管','','pipe',#382,#385,$);
#403=IFCPROPERTYSINGLEVALUE('quantity',$,IFCREAL(220.0000),$);
#404=IFCPROPERTYSINGLEVALUE('unit_price',$,IFCREAL(28.0000),$);
#405=IFCPROPERTYSINGLEVALUE('total_price',$,IFCREAL(6160.0000),$);
#401=IFCPROPERTYSET('AB78A891F5BA42F5B470CE',#102,'QuantityInfo',$,(#403,#404,#405));
#402=IFCRELDEFINESBYPROPERTIES('A3EE1676AC384D76870BB5',#102,'QuantityInfo',$,(#381),#401);
#409=IFCCARTESIANPOINT((10.5000,3.2000,0.0000));
#416=IFCDIRECTION((0.,0.,1.));
#417=IFCDIRECTION((1.,0.,0.));
#412=IFCAXIS2PLACEMENT3D(#413,#416,#417);
#413=IFCCARTESIANPOINT((0.,0.,0.));
#418=IFCCYLINDER(#412,10.0000,0.0250);
#420=IFCCARTESIANPOINT((0.,0.,0.));
#422=IFCDIRECTION((0.,0.,1.));
#423=IFCDIRECTION((1.,0.,0.));
#421=IFCAXIS2PLACEMENT3D(#420,#422,#423);
#419=IFCGEOMETRICREPRESENTATIONSUBCONTEXT('Body','Model',*,*,*,*,#421,$,.MODEL_VIEW.,$);
#411=IFCSHAPEREPRESENTATION(#419,'Body','SweptSolid',(#418));
#410=IFCPRODUCTDEFINITIONSHAPE($,$,(#411));
#407=IFCLOCALPLACEMENT($,#408);
#424=IFCDIRECTION((0.,0.,1.));
#425=IFCDIRECTION((1.,0.,0.));
#408=IFCAXIS2PLACEMENT3D(#409,#424,#425);
#406=IFCPIPESEGMENT('7D6F8F90E22E4F6F92ADEC',#102,'配管 SC25 镀锌钢管','','pipe',#407,#410,$);
#428=IFCPROPERTYSINGLEVALUE('quantity',$,IFCREAL(220.0000),$);
#429=IFCPROPERTYSINGLEVALUE('unit_price',$,IFCREAL(28.0000),$);
#430=IFCPROPERTYSINGLEVALUE('total_price',$,IFCREAL(6160.0000),$);
#426=IFCPROPERTYSET('CD68E511B02C488CBE461C',#102,'QuantityInfo',$,(#428,#429,#430));
#427=IFCRELDEFINESBYPROPERTIES('2047B91E8F2D41B8A07951',#102,'QuantityInfo',$,(#406),#426);
#431=IFCRELCONTAINEDINSPATIALSTRUCTURE('91A024455B5E4BD0B2AA34',#102,'BuildingElements',$,(#128,#153,#178,#203,#228,#253,#279,#305,#331,#356,#381,#406),#121);
ENDSEC;
END-ISO-10303-21;